<mxfile host="app.diagrams.net" agent="Mozilla/5.0 (Windows NT 10.0; Win64; x64) AppleWebKit/537.36 (KHTML, like Gecko) Chrome/124.0.0.0 Safari/537.36 SLBrowser/9.0.5.8011 SLBChan/33 SLBVPV/64-bit" version="24.7.6">
  <diagram name="第 1 页" id="0vqG57F0sQPoGFdU7Jv3">
    <mxGraphModel dx="1290" dy="1710" grid="1" gridSize="10" guides="1" tooltips="1" connect="1" arrows="1" fold="1" page="1" pageScale="1" pageWidth="827" pageHeight="1169" math="0" shadow="0">
      <root>
        <mxCell id="0" />
        <mxCell id="1" parent="0" />
        <mxCell id="TY5uGkcLxJHOFtOUXqYr-1" value="&lt;div&gt;&lt;span style=&quot;mso-spacerun:&#39;yes&#39;;font-size:12pt;font-family:ArialRegular;color:rgb(53,53,53);&quot;&gt;t1,t2表均有三个字段：主键id，字段a(有索引)，字段b(无索引)&lt;br&gt;select * from t1 straight_join t2 on (t1.a=t2.a);&lt;/span&gt;&lt;/div&gt;" style="text;whiteSpace=wrap;html=1;" vertex="1" parent="1">
          <mxGeometry x="170" y="100" width="460" height="60" as="geometry" />
        </mxCell>
        <mxCell id="TY5uGkcLxJHOFtOUXqYr-2" value="&lt;h2&gt;t1&lt;/h2&gt;" style="swimlane;fontStyle=0;childLayout=stackLayout;horizontal=1;startSize=26;fillColor=none;horizontalStack=0;resizeParent=1;resizeParentMax=0;resizeLast=0;collapsible=1;marginBottom=0;html=1;" vertex="1" parent="1">
          <mxGeometry x="190" y="-10" width="140" height="104" as="geometry" />
        </mxCell>
        <mxCell id="TY5uGkcLxJHOFtOUXqYr-3" value="&lt;font style=&quot;font-size: 14px;&quot;&gt;id&amp;nbsp; (主键)&lt;/font&gt;" style="text;strokeColor=none;fillColor=none;align=left;verticalAlign=top;spacingLeft=4;spacingRight=4;overflow=hidden;rotatable=0;points=[[0,0.5],[1,0.5]];portConstraint=eastwest;whiteSpace=wrap;html=1;" vertex="1" parent="TY5uGkcLxJHOFtOUXqYr-2">
          <mxGeometry y="26" width="140" height="26" as="geometry" />
        </mxCell>
        <mxCell id="TY5uGkcLxJHOFtOUXqYr-4" value="&lt;font style=&quot;font-size: 14px;&quot;&gt;a&amp;nbsp; &amp;nbsp;(普通索引)&lt;/font&gt;" style="text;strokeColor=none;fillColor=none;align=left;verticalAlign=top;spacingLeft=4;spacingRight=4;overflow=hidden;rotatable=0;points=[[0,0.5],[1,0.5]];portConstraint=eastwest;whiteSpace=wrap;html=1;" vertex="1" parent="TY5uGkcLxJHOFtOUXqYr-2">
          <mxGeometry y="52" width="140" height="26" as="geometry" />
        </mxCell>
        <mxCell id="TY5uGkcLxJHOFtOUXqYr-5" value="&lt;font style=&quot;font-size: 14px;&quot;&gt;b&amp;nbsp; &amp;nbsp;(无索引)&lt;/font&gt;" style="text;strokeColor=none;fillColor=none;align=left;verticalAlign=top;spacingLeft=4;spacingRight=4;overflow=hidden;rotatable=0;points=[[0,0.5],[1,0.5]];portConstraint=eastwest;whiteSpace=wrap;html=1;" vertex="1" parent="TY5uGkcLxJHOFtOUXqYr-2">
          <mxGeometry y="78" width="140" height="26" as="geometry" />
        </mxCell>
        <mxCell id="TY5uGkcLxJHOFtOUXqYr-14" value="&lt;h2&gt;t2&lt;/h2&gt;" style="swimlane;fontStyle=0;childLayout=stackLayout;horizontal=1;startSize=26;fillColor=none;horizontalStack=0;resizeParent=1;resizeParentMax=0;resizeLast=0;collapsible=1;marginBottom=0;html=1;" vertex="1" parent="1">
          <mxGeometry x="430" y="-10" width="140" height="104" as="geometry" />
        </mxCell>
        <mxCell id="TY5uGkcLxJHOFtOUXqYr-15" value="&lt;font style=&quot;font-size: 14px;&quot;&gt;id&amp;nbsp; (主键)&lt;/font&gt;" style="text;strokeColor=none;fillColor=none;align=left;verticalAlign=top;spacingLeft=4;spacingRight=4;overflow=hidden;rotatable=0;points=[[0,0.5],[1,0.5]];portConstraint=eastwest;whiteSpace=wrap;html=1;" vertex="1" parent="TY5uGkcLxJHOFtOUXqYr-14">
          <mxGeometry y="26" width="140" height="26" as="geometry" />
        </mxCell>
        <mxCell id="TY5uGkcLxJHOFtOUXqYr-16" value="&lt;font style=&quot;font-size: 14px;&quot;&gt;a&amp;nbsp; &amp;nbsp;(普通索引)&lt;/font&gt;" style="text;strokeColor=none;fillColor=none;align=left;verticalAlign=top;spacingLeft=4;spacingRight=4;overflow=hidden;rotatable=0;points=[[0,0.5],[1,0.5]];portConstraint=eastwest;whiteSpace=wrap;html=1;" vertex="1" parent="TY5uGkcLxJHOFtOUXqYr-14">
          <mxGeometry y="52" width="140" height="26" as="geometry" />
        </mxCell>
        <mxCell id="TY5uGkcLxJHOFtOUXqYr-17" value="&lt;font style=&quot;font-size: 14px;&quot;&gt;b&amp;nbsp; &amp;nbsp;(无索引)&lt;/font&gt;" style="text;strokeColor=none;fillColor=none;align=left;verticalAlign=top;spacingLeft=4;spacingRight=4;overflow=hidden;rotatable=0;points=[[0,0.5],[1,0.5]];portConstraint=eastwest;whiteSpace=wrap;html=1;" vertex="1" parent="TY5uGkcLxJHOFtOUXqYr-14">
          <mxGeometry y="78" width="140" height="26" as="geometry" />
        </mxCell>
        <mxCell id="TY5uGkcLxJHOFtOUXqYr-35" value="" style="shape=table;startSize=0;container=1;collapsible=0;childLayout=tableLayout;" vertex="1" parent="1">
          <mxGeometry x="140" y="305" width="180" height="280" as="geometry" />
        </mxCell>
        <mxCell id="TY5uGkcLxJHOFtOUXqYr-36" value="" style="shape=tableRow;horizontal=0;startSize=0;swimlaneHead=0;swimlaneBody=0;strokeColor=inherit;top=0;left=0;bottom=0;right=0;collapsible=0;dropTarget=0;fillColor=none;points=[[0,0.5],[1,0.5]];portConstraint=eastwest;" vertex="1" parent="TY5uGkcLxJHOFtOUXqYr-35">
          <mxGeometry width="180" height="40" as="geometry" />
        </mxCell>
        <mxCell id="TY5uGkcLxJHOFtOUXqYr-37" value="row1" style="shape=partialRectangle;html=1;whiteSpace=wrap;connectable=0;strokeColor=inherit;overflow=hidden;fillColor=none;top=0;left=0;bottom=0;right=0;pointerEvents=1;" vertex="1" parent="TY5uGkcLxJHOFtOUXqYr-36">
          <mxGeometry width="60" height="40" as="geometry">
            <mxRectangle width="60" height="40" as="alternateBounds" />
          </mxGeometry>
        </mxCell>
        <mxCell id="TY5uGkcLxJHOFtOUXqYr-38" value="" style="shape=partialRectangle;html=1;whiteSpace=wrap;connectable=0;strokeColor=inherit;overflow=hidden;fillColor=none;top=0;left=0;bottom=0;right=0;pointerEvents=1;" vertex="1" parent="TY5uGkcLxJHOFtOUXqYr-36">
          <mxGeometry x="60" width="60" height="40" as="geometry">
            <mxRectangle width="60" height="40" as="alternateBounds" />
          </mxGeometry>
        </mxCell>
        <mxCell id="TY5uGkcLxJHOFtOUXqYr-39" value="" style="shape=partialRectangle;html=1;whiteSpace=wrap;connectable=0;strokeColor=inherit;overflow=hidden;fillColor=none;top=0;left=0;bottom=0;right=0;pointerEvents=1;" vertex="1" parent="TY5uGkcLxJHOFtOUXqYr-36">
          <mxGeometry x="120" width="60" height="40" as="geometry">
            <mxRectangle width="60" height="40" as="alternateBounds" />
          </mxGeometry>
        </mxCell>
        <mxCell id="TY5uGkcLxJHOFtOUXqYr-40" value="" style="shape=tableRow;horizontal=0;startSize=0;swimlaneHead=0;swimlaneBody=0;strokeColor=inherit;top=0;left=0;bottom=0;right=0;collapsible=0;dropTarget=0;fillColor=none;points=[[0,0.5],[1,0.5]];portConstraint=eastwest;" vertex="1" parent="TY5uGkcLxJHOFtOUXqYr-35">
          <mxGeometry y="40" width="180" height="40" as="geometry" />
        </mxCell>
        <mxCell id="TY5uGkcLxJHOFtOUXqYr-41" value="row2" style="shape=partialRectangle;html=1;whiteSpace=wrap;connectable=0;strokeColor=inherit;overflow=hidden;fillColor=none;top=0;left=0;bottom=0;right=0;pointerEvents=1;" vertex="1" parent="TY5uGkcLxJHOFtOUXqYr-40">
          <mxGeometry width="60" height="40" as="geometry">
            <mxRectangle width="60" height="40" as="alternateBounds" />
          </mxGeometry>
        </mxCell>
        <mxCell id="TY5uGkcLxJHOFtOUXqYr-42" value="" style="shape=partialRectangle;html=1;whiteSpace=wrap;connectable=0;strokeColor=inherit;overflow=hidden;fillColor=none;top=0;left=0;bottom=0;right=0;pointerEvents=1;" vertex="1" parent="TY5uGkcLxJHOFtOUXqYr-40">
          <mxGeometry x="60" width="60" height="40" as="geometry">
            <mxRectangle width="60" height="40" as="alternateBounds" />
          </mxGeometry>
        </mxCell>
        <mxCell id="TY5uGkcLxJHOFtOUXqYr-43" value="" style="shape=partialRectangle;html=1;whiteSpace=wrap;connectable=0;strokeColor=inherit;overflow=hidden;fillColor=none;top=0;left=0;bottom=0;right=0;pointerEvents=1;" vertex="1" parent="TY5uGkcLxJHOFtOUXqYr-40">
          <mxGeometry x="120" width="60" height="40" as="geometry">
            <mxRectangle width="60" height="40" as="alternateBounds" />
          </mxGeometry>
        </mxCell>
        <mxCell id="TY5uGkcLxJHOFtOUXqYr-44" value="" style="shape=tableRow;horizontal=0;startSize=0;swimlaneHead=0;swimlaneBody=0;strokeColor=inherit;top=0;left=0;bottom=0;right=0;collapsible=0;dropTarget=0;fillColor=none;points=[[0,0.5],[1,0.5]];portConstraint=eastwest;" vertex="1" parent="TY5uGkcLxJHOFtOUXqYr-35">
          <mxGeometry y="80" width="180" height="40" as="geometry" />
        </mxCell>
        <mxCell id="TY5uGkcLxJHOFtOUXqYr-45" value="row3" style="shape=partialRectangle;html=1;whiteSpace=wrap;connectable=0;strokeColor=inherit;overflow=hidden;fillColor=none;top=0;left=0;bottom=0;right=0;pointerEvents=1;" vertex="1" parent="TY5uGkcLxJHOFtOUXqYr-44">
          <mxGeometry width="60" height="40" as="geometry">
            <mxRectangle width="60" height="40" as="alternateBounds" />
          </mxGeometry>
        </mxCell>
        <mxCell id="TY5uGkcLxJHOFtOUXqYr-46" value="" style="shape=partialRectangle;html=1;whiteSpace=wrap;connectable=0;strokeColor=inherit;overflow=hidden;fillColor=none;top=0;left=0;bottom=0;right=0;pointerEvents=1;" vertex="1" parent="TY5uGkcLxJHOFtOUXqYr-44">
          <mxGeometry x="60" width="60" height="40" as="geometry">
            <mxRectangle width="60" height="40" as="alternateBounds" />
          </mxGeometry>
        </mxCell>
        <mxCell id="TY5uGkcLxJHOFtOUXqYr-47" value="" style="shape=partialRectangle;html=1;whiteSpace=wrap;connectable=0;strokeColor=inherit;overflow=hidden;fillColor=none;top=0;left=0;bottom=0;right=0;pointerEvents=1;" vertex="1" parent="TY5uGkcLxJHOFtOUXqYr-44">
          <mxGeometry x="120" width="60" height="40" as="geometry">
            <mxRectangle width="60" height="40" as="alternateBounds" />
          </mxGeometry>
        </mxCell>
        <mxCell id="TY5uGkcLxJHOFtOUXqYr-48" value="" style="shape=tableRow;horizontal=0;startSize=0;swimlaneHead=0;swimlaneBody=0;strokeColor=inherit;top=0;left=0;bottom=0;right=0;collapsible=0;dropTarget=0;fillColor=none;points=[[0,0.5],[1,0.5]];portConstraint=eastwest;" vertex="1" parent="TY5uGkcLxJHOFtOUXqYr-35">
          <mxGeometry y="120" width="180" height="40" as="geometry" />
        </mxCell>
        <mxCell id="TY5uGkcLxJHOFtOUXqYr-49" value="" style="shape=partialRectangle;html=1;whiteSpace=wrap;connectable=0;strokeColor=inherit;overflow=hidden;fillColor=none;top=0;left=0;bottom=0;right=0;pointerEvents=1;" vertex="1" parent="TY5uGkcLxJHOFtOUXqYr-48">
          <mxGeometry width="60" height="40" as="geometry">
            <mxRectangle width="60" height="40" as="alternateBounds" />
          </mxGeometry>
        </mxCell>
        <mxCell id="TY5uGkcLxJHOFtOUXqYr-50" value="" style="shape=partialRectangle;html=1;whiteSpace=wrap;connectable=0;strokeColor=inherit;overflow=hidden;fillColor=none;top=0;left=0;bottom=0;right=0;pointerEvents=1;" vertex="1" parent="TY5uGkcLxJHOFtOUXqYr-48">
          <mxGeometry x="60" width="60" height="40" as="geometry">
            <mxRectangle width="60" height="40" as="alternateBounds" />
          </mxGeometry>
        </mxCell>
        <mxCell id="TY5uGkcLxJHOFtOUXqYr-51" value="" style="shape=partialRectangle;html=1;whiteSpace=wrap;connectable=0;strokeColor=inherit;overflow=hidden;fillColor=none;top=0;left=0;bottom=0;right=0;pointerEvents=1;" vertex="1" parent="TY5uGkcLxJHOFtOUXqYr-48">
          <mxGeometry x="120" width="60" height="40" as="geometry">
            <mxRectangle width="60" height="40" as="alternateBounds" />
          </mxGeometry>
        </mxCell>
        <mxCell id="TY5uGkcLxJHOFtOUXqYr-52" value="" style="shape=tableRow;horizontal=0;startSize=0;swimlaneHead=0;swimlaneBody=0;strokeColor=inherit;top=0;left=0;bottom=0;right=0;collapsible=0;dropTarget=0;fillColor=none;points=[[0,0.5],[1,0.5]];portConstraint=eastwest;" vertex="1" parent="TY5uGkcLxJHOFtOUXqYr-35">
          <mxGeometry y="160" width="180" height="40" as="geometry" />
        </mxCell>
        <mxCell id="TY5uGkcLxJHOFtOUXqYr-53" value="" style="shape=partialRectangle;html=1;whiteSpace=wrap;connectable=0;strokeColor=inherit;overflow=hidden;fillColor=none;top=0;left=0;bottom=0;right=0;pointerEvents=1;" vertex="1" parent="TY5uGkcLxJHOFtOUXqYr-52">
          <mxGeometry width="60" height="40" as="geometry">
            <mxRectangle width="60" height="40" as="alternateBounds" />
          </mxGeometry>
        </mxCell>
        <mxCell id="TY5uGkcLxJHOFtOUXqYr-54" value="" style="shape=partialRectangle;html=1;whiteSpace=wrap;connectable=0;strokeColor=inherit;overflow=hidden;fillColor=none;top=0;left=0;bottom=0;right=0;pointerEvents=1;" vertex="1" parent="TY5uGkcLxJHOFtOUXqYr-52">
          <mxGeometry x="60" width="60" height="40" as="geometry">
            <mxRectangle width="60" height="40" as="alternateBounds" />
          </mxGeometry>
        </mxCell>
        <mxCell id="TY5uGkcLxJHOFtOUXqYr-55" value="" style="shape=partialRectangle;html=1;whiteSpace=wrap;connectable=0;strokeColor=inherit;overflow=hidden;fillColor=none;top=0;left=0;bottom=0;right=0;pointerEvents=1;" vertex="1" parent="TY5uGkcLxJHOFtOUXqYr-52">
          <mxGeometry x="120" width="60" height="40" as="geometry">
            <mxRectangle width="60" height="40" as="alternateBounds" />
          </mxGeometry>
        </mxCell>
        <mxCell id="TY5uGkcLxJHOFtOUXqYr-56" value="" style="shape=tableRow;horizontal=0;startSize=0;swimlaneHead=0;swimlaneBody=0;strokeColor=inherit;top=0;left=0;bottom=0;right=0;collapsible=0;dropTarget=0;fillColor=none;points=[[0,0.5],[1,0.5]];portConstraint=eastwest;" vertex="1" parent="TY5uGkcLxJHOFtOUXqYr-35">
          <mxGeometry y="200" width="180" height="40" as="geometry" />
        </mxCell>
        <mxCell id="TY5uGkcLxJHOFtOUXqYr-57" value="" style="shape=partialRectangle;html=1;whiteSpace=wrap;connectable=0;strokeColor=inherit;overflow=hidden;fillColor=none;top=0;left=0;bottom=0;right=0;pointerEvents=1;" vertex="1" parent="TY5uGkcLxJHOFtOUXqYr-56">
          <mxGeometry width="60" height="40" as="geometry">
            <mxRectangle width="60" height="40" as="alternateBounds" />
          </mxGeometry>
        </mxCell>
        <mxCell id="TY5uGkcLxJHOFtOUXqYr-58" value="" style="shape=partialRectangle;html=1;whiteSpace=wrap;connectable=0;strokeColor=inherit;overflow=hidden;fillColor=none;top=0;left=0;bottom=0;right=0;pointerEvents=1;" vertex="1" parent="TY5uGkcLxJHOFtOUXqYr-56">
          <mxGeometry x="60" width="60" height="40" as="geometry">
            <mxRectangle width="60" height="40" as="alternateBounds" />
          </mxGeometry>
        </mxCell>
        <mxCell id="TY5uGkcLxJHOFtOUXqYr-59" value="" style="shape=partialRectangle;html=1;whiteSpace=wrap;connectable=0;strokeColor=inherit;overflow=hidden;fillColor=none;top=0;left=0;bottom=0;right=0;pointerEvents=1;" vertex="1" parent="TY5uGkcLxJHOFtOUXqYr-56">
          <mxGeometry x="120" width="60" height="40" as="geometry">
            <mxRectangle width="60" height="40" as="alternateBounds" />
          </mxGeometry>
        </mxCell>
        <mxCell id="TY5uGkcLxJHOFtOUXqYr-60" value="" style="shape=tableRow;horizontal=0;startSize=0;swimlaneHead=0;swimlaneBody=0;strokeColor=inherit;top=0;left=0;bottom=0;right=0;collapsible=0;dropTarget=0;fillColor=none;points=[[0,0.5],[1,0.5]];portConstraint=eastwest;" vertex="1" parent="TY5uGkcLxJHOFtOUXqYr-35">
          <mxGeometry y="240" width="180" height="40" as="geometry" />
        </mxCell>
        <mxCell id="TY5uGkcLxJHOFtOUXqYr-61" value="" style="shape=partialRectangle;html=1;whiteSpace=wrap;connectable=0;strokeColor=inherit;overflow=hidden;fillColor=none;top=0;left=0;bottom=0;right=0;pointerEvents=1;" vertex="1" parent="TY5uGkcLxJHOFtOUXqYr-60">
          <mxGeometry width="60" height="40" as="geometry">
            <mxRectangle width="60" height="40" as="alternateBounds" />
          </mxGeometry>
        </mxCell>
        <mxCell id="TY5uGkcLxJHOFtOUXqYr-62" value="" style="shape=partialRectangle;html=1;whiteSpace=wrap;connectable=0;strokeColor=inherit;overflow=hidden;fillColor=none;top=0;left=0;bottom=0;right=0;pointerEvents=1;" vertex="1" parent="TY5uGkcLxJHOFtOUXqYr-60">
          <mxGeometry x="60" width="60" height="40" as="geometry">
            <mxRectangle width="60" height="40" as="alternateBounds" />
          </mxGeometry>
        </mxCell>
        <mxCell id="TY5uGkcLxJHOFtOUXqYr-63" value="" style="shape=partialRectangle;html=1;whiteSpace=wrap;connectable=0;strokeColor=inherit;overflow=hidden;fillColor=none;top=0;left=0;bottom=0;right=0;pointerEvents=1;" vertex="1" parent="TY5uGkcLxJHOFtOUXqYr-60">
          <mxGeometry x="120" width="60" height="40" as="geometry">
            <mxRectangle width="60" height="40" as="alternateBounds" />
          </mxGeometry>
        </mxCell>
        <mxCell id="TY5uGkcLxJHOFtOUXqYr-64" value="t2表：字段a的索引树" style="swimlane;startSize=20;horizontal=1;childLayout=treeLayout;horizontalTree=0;sortEdges=1;resizable=0;containerType=tree;fontSize=12;" vertex="1" parent="1">
          <mxGeometry x="560" y="295" width="280" height="190" as="geometry" />
        </mxCell>
        <mxCell id="TY5uGkcLxJHOFtOUXqYr-65" value="xxx" style="whiteSpace=wrap;html=1;" vertex="1" parent="TY5uGkcLxJHOFtOUXqYr-64">
          <mxGeometry x="90" y="40" width="100" height="40" as="geometry" />
        </mxCell>
        <mxCell id="TY5uGkcLxJHOFtOUXqYr-66" value="xxx" style="whiteSpace=wrap;html=1;" vertex="1" parent="TY5uGkcLxJHOFtOUXqYr-64">
          <mxGeometry x="20" y="130" width="100" height="40" as="geometry" />
        </mxCell>
        <mxCell id="TY5uGkcLxJHOFtOUXqYr-67" value="" style="edgeStyle=elbowEdgeStyle;elbow=vertical;html=1;rounded=1;curved=0;sourcePerimeterSpacing=0;targetPerimeterSpacing=0;startSize=6;endSize=6;" edge="1" parent="TY5uGkcLxJHOFtOUXqYr-64" source="TY5uGkcLxJHOFtOUXqYr-65" target="TY5uGkcLxJHOFtOUXqYr-66">
          <mxGeometry relative="1" as="geometry" />
        </mxCell>
        <mxCell id="TY5uGkcLxJHOFtOUXqYr-68" value="xxxx" style="whiteSpace=wrap;html=1;" vertex="1" parent="TY5uGkcLxJHOFtOUXqYr-64">
          <mxGeometry x="160" y="130" width="100" height="40" as="geometry" />
        </mxCell>
        <mxCell id="TY5uGkcLxJHOFtOUXqYr-69" value="" style="edgeStyle=elbowEdgeStyle;elbow=vertical;html=1;rounded=1;curved=0;sourcePerimeterSpacing=0;targetPerimeterSpacing=0;startSize=6;endSize=6;" edge="1" parent="TY5uGkcLxJHOFtOUXqYr-64" source="TY5uGkcLxJHOFtOUXqYr-65" target="TY5uGkcLxJHOFtOUXqYr-68">
          <mxGeometry relative="1" as="geometry" />
        </mxCell>
        <mxCell id="TY5uGkcLxJHOFtOUXqYr-75" value="" style="endArrow=classic;html=1;rounded=0;exitX=1;exitY=0.5;exitDx=0;exitDy=0;entryX=0;entryY=0.5;entryDx=0;entryDy=0;" edge="1" parent="1" source="TY5uGkcLxJHOFtOUXqYr-36" target="TY5uGkcLxJHOFtOUXqYr-65">
          <mxGeometry width="50" height="50" relative="1" as="geometry">
            <mxPoint x="420" y="315" as="sourcePoint" />
            <mxPoint x="470" y="265" as="targetPoint" />
          </mxGeometry>
        </mxCell>
        <mxCell id="TY5uGkcLxJHOFtOUXqYr-76" value="" style="endArrow=classic;html=1;rounded=0;exitX=1;exitY=0.5;exitDx=0;exitDy=0;entryX=0;entryY=0.75;entryDx=0;entryDy=0;" edge="1" parent="1" source="TY5uGkcLxJHOFtOUXqYr-40" target="TY5uGkcLxJHOFtOUXqYr-65">
          <mxGeometry width="50" height="50" relative="1" as="geometry">
            <mxPoint x="450" y="455" as="sourcePoint" />
            <mxPoint x="500" y="405" as="targetPoint" />
          </mxGeometry>
        </mxCell>
        <mxCell id="TY5uGkcLxJHOFtOUXqYr-77" value="" style="endArrow=classic;html=1;rounded=0;exitX=1;exitY=0.5;exitDx=0;exitDy=0;entryX=0;entryY=1;entryDx=0;entryDy=0;" edge="1" parent="1" source="TY5uGkcLxJHOFtOUXqYr-44" target="TY5uGkcLxJHOFtOUXqYr-65">
          <mxGeometry width="50" height="50" relative="1" as="geometry">
            <mxPoint x="410" y="475" as="sourcePoint" />
            <mxPoint x="460" y="425" as="targetPoint" />
          </mxGeometry>
        </mxCell>
        <mxCell id="TY5uGkcLxJHOFtOUXqYr-78" value="t1" style="text;html=1;align=center;verticalAlign=middle;resizable=0;points=[];autosize=1;strokeColor=none;fillColor=none;" vertex="1" parent="1">
          <mxGeometry x="175" y="273" width="30" height="30" as="geometry" />
        </mxCell>
        <mxCell id="TY5uGkcLxJHOFtOUXqYr-79" value="&lt;h3&gt;对驱动表做全表扫描，取出每一行然后去被驱动表的索引树查&lt;/h3&gt;" style="text;html=1;align=center;verticalAlign=middle;resizable=0;points=[];autosize=1;strokeColor=none;fillColor=none;" vertex="1" parent="1">
          <mxGeometry x="240" y="243" width="400" height="60" as="geometry" />
        </mxCell>
        <mxCell id="TY5uGkcLxJHOFtOUXqYr-80" value="" style="shape=flexArrow;endArrow=classic;html=1;rounded=0;entryX=0.399;entryY=-0.023;entryDx=0;entryDy=0;entryPerimeter=0;" edge="1" parent="1" source="TY5uGkcLxJHOFtOUXqYr-1" target="TY5uGkcLxJHOFtOUXqYr-79">
          <mxGeometry width="50" height="50" relative="1" as="geometry">
            <mxPoint x="350" y="220" as="sourcePoint" />
            <mxPoint x="400" y="170" as="targetPoint" />
          </mxGeometry>
        </mxCell>
      </root>
    </mxGraphModel>
  </diagram>
</mxfile>
